<svg width="149" height="138" viewBox="0 0 149 138" fill="none" xmlns="http://www.w3.org/2000/svg">
<ellipse cx="14.6117" cy="14.6118" rx="14.6117" ry="14.6118" transform="matrix(-0.996245 -0.0865742 -0.0865455 0.996248 119.996 22.7822)" fill="#4E4DF4"/>
<ellipse cx="38.2793" cy="37.8236" rx="38.2793" ry="37.8236" transform="matrix(-0.837619 0.546255 0.546255 0.837619 75.3164 19.3419)" fill="#162034"/>
<ellipse cx="6.247" cy="6.14561" rx="6.247" ry="6.14561" transform="matrix(-0.835873 -0.499572 0.521126 -0.881077 103.356 49.9952)" fill="#4E4DF4"/>
<rect width="3.74443" height="20.2919" transform="matrix(-0.462294 -0.845656 -0.89932 0.51494 103.069 42.91)" fill="#4E4DF4"/>
<ellipse cx="32.6479" cy="34.0255" rx="32.6479" ry="34.0255" transform="matrix(-0.999079 0.0172586 -0.000628232 0.999178 99.5337 40.6351)" fill="#4E4DF4"/>
<path d="M75.3713 91.9137C74.7558 92.1077 74.1207 91.7759 73.9528 91.1726C73.7849 90.5693 74.1477 89.9229 74.7632 89.7289L75.3713 91.9137ZM74.7632 89.7289C78.3725 88.5912 80.6829 83.7101 79.2015 78.3874L81.4304 77.6848C83.0947 83.665 80.7053 90.2322 75.3713 91.9137L74.7632 89.7289Z" fill="#2C2C86"/>
<ellipse cx="14.0713" cy="14.2133" rx="14.0713" ry="14.2133" transform="matrix(-0.851826 0.571258 0.520034 0.824004 76.0332 45.7204)" fill="#C5C0FF"/>
<ellipse cx="11.257" cy="11.3706" rx="11.257" ry="11.3706" transform="matrix(-0.851826 0.571258 0.520034 0.824004 54.7314 49.4627)" fill="#C5C0FF"/>
<path d="M60.4454 112.114C38.235 110.184 21.7942 90.6141 23.7237 68.4036C25.6531 46.1932 45.2222 29.7526 67.4326 31.6827C89.6429 33.6128 106.084 53.1826 104.154 75.3931C102.225 97.6035 82.6557 114.044 60.4454 112.114Z" stroke="white" stroke-width="7.67584"/>
<ellipse cx="47.5899" cy="67.9311" rx="3.83792" ry="4.22171" fill="black"/>
<ellipse cx="65.2442" cy="67.9311" rx="3.83792" ry="4.22171" fill="black"/>
</svg>
