<svg width="166" height="166" viewBox="0 0 166 166" fill="none" xmlns="http://www.w3.org/2000/svg">
<g clip-path="url(#clip0_35_383)">
<rect width="166" height="166" rx="64" fill="black"/>
<g filter="url(#filter0_d_35_383)">
<path d="M58.4766 71.5676C58.6375 70.7229 58.7179 69.5686 58.7179 68.1046C58.7179 67.26 58.6643 66.4435 58.557 65.6552C58.4498 64.8106 58.2622 64.0786 57.9941 63.4592C57.726 62.7835 57.3239 62.2767 56.7878 61.9389C56.2517 61.5447 55.5547 61.3476 54.6969 61.3476C53.7319 61.3476 52.8473 61.5729 52.0431 62.0233C51.2389 62.4738 50.5151 63.065 49.8718 63.797C49.282 64.4727 48.7995 65.2892 48.4242 66.2464C48.1025 67.1474 47.9417 68.1046 47.9417 69.1182C47.9417 70.5822 48.2902 71.7083 48.9872 72.4966C49.7377 73.285 50.7028 73.9325 51.8822 74.4393C53.0617 74.946 54.402 75.3684 55.9032 75.7062C57.4044 76.0441 58.9591 76.4382 60.5675 76.8887C61.9078 77.2828 63.2482 77.7896 64.5885 78.409C65.9288 79.0284 67.1083 79.873 68.1269 80.9429C69.1992 81.9564 70.057 83.3078 70.7003 84.997C71.3437 86.63 71.6654 88.6852 71.6654 91.1628C71.6654 94.7102 70.9952 97.6945 69.6549 100.116C68.3146 102.537 66.4649 104.508 64.106 106.028C61.747 107.548 58.9323 108.646 55.6619 109.322C52.4452 109.998 48.9335 110.336 45.127 110.336C41.2669 110.336 38.1038 110.082 35.6376 109.576C33.225 109.012 31.3217 108.421 29.9278 107.802C28.2658 107.07 27.0327 106.225 26.2285 105.268L28.9628 93.6967H43.1165C43.0629 94.2034 43.0093 94.9073 42.9557 95.8082C42.9021 96.6528 42.8753 97.3285 42.8753 97.8353C42.8753 98.511 42.9557 99.2149 43.1165 99.9469C43.2774 100.679 43.5186 101.355 43.8403 101.974C44.2156 102.593 44.7249 103.1 45.3683 103.494C46.0116 103.888 46.8158 104.086 47.7809 104.086C48.8531 104.086 49.7913 103.832 50.5955 103.325C51.4533 102.819 52.1503 102.199 52.6864 101.467C53.2762 100.679 53.7051 99.8342 53.9731 98.9333C54.2948 97.9761 54.4557 97.047 54.4557 96.1461C54.4557 94.9073 54.1608 93.8656 53.571 93.021C53.0349 92.1763 52.2843 91.4725 51.3193 90.9094C50.3543 90.29 49.2284 89.7832 47.9417 89.3891C46.7086 88.9386 45.4219 88.4882 44.0816 88.0377C42.7949 87.6435 41.4277 87.1649 39.9802 86.6018C38.5863 86.0387 37.2996 85.2504 36.1201 84.2369C34.9406 83.2233 33.9488 81.9564 33.1446 80.4361C32.394 78.8595 32.0187 76.8605 32.0187 74.4393C32.0187 70.8355 32.8765 67.8231 34.5921 65.4018C36.3613 62.9243 38.5595 60.9253 41.1865 59.405C43.8671 57.8847 46.789 56.8148 49.9522 56.1954C53.1153 55.5197 56.1177 55.1819 58.9591 55.1819C62.712 55.1819 65.9288 55.6605 68.6094 56.6177C71.3437 57.5187 73.4078 58.5885 74.8017 59.8273L71.8262 71.5676H58.4766Z" fill="url(#paint0_linear_35_383)"/>
<path d="M89.5115 109.66H73.1864L80.5046 73.3413H96.9905L89.5115 109.66ZM99.0814 62.2767C99.0814 63.5718 98.8133 64.698 98.2772 65.6552C97.7947 66.6124 97.1245 67.4289 96.2667 68.1046C95.4625 68.7803 94.5243 69.2871 93.4521 69.6249C92.3798 69.9628 91.2807 70.1317 90.1549 70.1317C88.0104 70.1317 86.2143 69.5968 84.7668 68.5269C83.3192 67.4571 82.5955 65.7678 82.5955 63.4592C82.5955 62.2204 82.8367 61.1224 83.3192 60.1652C83.8018 59.1516 84.4451 58.3351 85.2493 57.7158C86.1071 57.0401 87.0721 56.5333 88.1444 56.1954C89.2703 55.8576 90.4229 55.6887 91.6024 55.6887C93.6933 55.6887 95.4625 56.2236 96.9101 57.2934C98.3576 58.3633 99.0814 60.0244 99.0814 62.2767Z" fill="url(#paint1_linear_35_383)"/>
<path d="M103.341 76.4664C106.075 75.0587 108.863 74.0451 111.705 73.4257C114.6 72.75 117.817 72.4122 121.355 72.4122C124.786 72.4122 127.628 72.6937 129.879 73.2568C132.131 73.8199 133.927 74.6363 135.268 75.7062C136.608 76.7761 137.546 78.043 138.082 79.507C138.618 80.971 138.886 82.6321 138.886 84.4903C138.886 85.5601 138.806 86.7144 138.645 87.9532C138.538 89.192 138.404 90.2337 138.243 91.0783L134.463 109.66H121.516L120.068 104.254H119.586C117.87 106.225 115.86 107.746 113.554 108.815C111.303 109.829 109.051 110.336 106.799 110.336C105.512 110.336 104.253 110.139 103.019 109.744C101.786 109.35 100.687 108.759 99.7222 107.971C98.7572 107.126 97.9798 106.084 97.3901 104.846C96.8003 103.551 96.5055 102.002 96.5055 100.2C96.5055 97.2722 97.2561 94.9636 98.7572 93.2743C100.312 91.5288 102.322 90.2337 104.789 89.3891C107.308 88.4882 110.123 87.9251 113.233 87.6998C116.396 87.4746 119.559 87.362 122.722 87.362C122.829 86.7989 122.963 86.0106 123.124 84.997C123.285 83.9272 123.365 82.9981 123.365 82.2098C123.365 81.1962 123.097 80.2672 122.561 79.4225C122.079 78.5216 121.033 78.0711 119.425 78.0711C117.548 78.0711 116.155 78.6624 115.243 79.8449C114.385 80.971 113.822 82.3506 113.554 83.9835H101.813L103.341 76.4664ZM121.838 91.3317H120.39C118.835 91.3317 117.495 91.5569 116.369 92.0074C115.297 92.4016 114.412 92.9365 113.715 93.6122C113.072 94.2879 112.589 95.0481 112.268 95.8927C111.946 96.7373 111.785 97.5819 111.785 98.4265C111.785 99.7779 112.107 100.791 112.75 101.467C113.447 102.143 114.251 102.481 115.163 102.481C116.289 102.481 117.388 102.058 118.46 101.214C119.586 100.369 120.283 99.243 120.551 97.8353L121.838 91.3317Z" fill="url(#paint2_linear_35_383)"/>
</g>
<g filter="url(#filter1_d_35_383)">
<path fill-rule="evenodd" clip-rule="evenodd" d="M57.1108 72.7318L57.378 71.3287C57.5179 70.5942 57.5976 69.5281 57.5976 68.0958C57.5976 67.3034 57.5473 66.5425 57.448 65.8123L57.4465 65.8014C57.3503 65.0436 57.1869 64.4278 56.9739 63.9358L56.9666 63.9188L56.9598 63.9016C56.7724 63.4294 56.518 63.1302 56.2098 62.936L56.1761 62.9148L56.144 62.8911C55.8461 62.6721 55.3928 62.5119 54.6936 62.5119C53.9008 62.5119 53.1983 62.6951 52.5654 63.0496L52.0397 62.0145C52.8439 61.5641 53.7285 61.3388 54.6936 61.3388C55.5514 61.3388 56.2484 61.5359 56.7845 61.9301C57.3206 62.2679 57.7227 62.7747 57.9908 63.4504C58.2588 64.0698 58.4465 64.8018 58.5537 65.6464C58.6609 66.4347 58.7145 67.2512 58.7145 68.0958C58.7145 68.9694 58.6859 69.7326 58.6286 70.3857C58.5899 70.8271 58.5382 71.2181 58.4733 71.5588H71.8229L74.7984 59.8185C73.4044 58.5797 71.3404 57.5099 68.6061 56.6089C65.9255 55.6517 62.7087 55.1731 58.9558 55.1731C56.1143 55.1731 53.112 55.5109 49.9488 56.1866C46.7857 56.806 43.8638 57.8759 41.1832 59.3962C38.5561 60.9165 36.358 62.9155 34.5888 65.393C32.8732 67.8143 32.0154 70.8267 32.0154 74.4305C32.0154 76.8517 32.3907 78.8507 33.1412 80.4273C33.9454 81.9476 34.9373 83.2145 36.1167 84.2281C37.2962 85.2416 38.5829 86.0299 39.9769 86.593C41.4244 87.1561 42.7915 87.6347 44.0782 88.0289C45.4186 88.4794 46.7053 88.9298 47.9384 89.3803C49.2251 89.7744 50.3509 90.2812 51.316 90.9006C52.281 91.4637 53.0316 92.1675 53.5677 93.0122C54.1574 93.8568 54.4523 94.8985 54.4523 96.1373C54.4523 97.0382 54.2915 97.9673 53.9698 98.9245C53.7017 99.8254 53.2728 100.67 52.6831 101.458C52.147 102.19 51.45 102.81 50.5922 103.317C49.788 103.823 48.8498 104.077 47.7775 104.077C46.8125 104.077 46.0083 103.88 45.365 103.485C44.7216 103.091 44.2123 102.585 43.837 101.965C43.5153 101.346 43.2741 100.67 43.1132 99.9381C42.9524 99.2061 42.872 98.5022 42.872 97.8265C42.872 97.3197 42.8988 96.644 42.9524 95.7994C42.9727 95.4583 42.993 95.1455 43.0133 94.8609C43.0466 94.3938 43.0799 94.0028 43.1132 93.6879H28.9594L26.2252 105.259C27.0294 106.216 28.2625 107.061 29.9245 107.793C31.3184 108.412 33.2217 109.004 35.6342 109.567C38.1004 110.074 41.2636 110.327 45.1237 110.327C48.9302 110.327 52.4418 109.989 55.6586 109.313C58.929 108.638 61.7437 107.54 64.1026 106.019C66.4616 104.499 68.3112 102.528 69.6516 100.107C70.9919 97.6857 71.662 94.7014 71.662 91.154C71.662 88.6764 71.3404 86.6212 70.697 84.9882C70.0537 83.299 69.1958 81.9476 68.1236 80.9341C67.1049 79.8642 65.9255 79.0196 64.5851 78.4002C63.2448 77.7808 61.9045 77.274 60.5642 76.8799C58.9558 76.4294 57.401 76.0353 55.8999 75.6974C54.3987 75.3596 53.0584 74.9372 51.8789 74.4305C50.6994 73.9237 49.7344 73.2762 48.9838 72.4878C48.2868 71.6995 47.9384 70.5734 47.9384 69.1094C47.9384 68.0958 48.0992 67.1386 48.4209 66.2376C48.7962 65.2804 49.2787 64.4639 49.8684 63.7882C50.5118 63.0562 51.2356 62.465 52.0397 62.0145L52.5654 63.0496C51.8767 63.4354 51.2522 63.9437 50.6906 64.5823C50.204 65.1401 49.7909 65.8292 49.4605 66.6669C49.1924 67.4242 49.0553 68.2356 49.0553 69.1094C49.0553 70.373 49.3515 71.1705 49.7891 71.6746C50.4142 72.3261 51.2415 72.8891 52.3018 73.3447C53.4093 73.8206 54.6847 74.2242 56.1339 74.5504C57.6545 74.8926 59.2272 75.2914 60.852 75.7464L60.8654 75.7502C62.259 76.16 63.6489 76.6859 65.035 77.3265C66.4909 77.9993 67.7793 78.9188 68.8928 80.083C70.1032 81.2345 71.0418 82.7372 71.7317 84.5464C72.447 86.3652 72.779 88.5831 72.779 91.154C72.779 94.8542 72.0797 98.0545 70.6172 100.697C69.1804 103.292 67.1971 105.401 64.6868 107.019C62.1944 108.626 59.25 109.767 55.8758 110.464C52.577 111.157 48.9916 111.5 45.1237 111.5C41.2255 111.5 37.9835 111.245 35.4198 110.718L35.4058 110.715L35.3919 110.712C32.9502 110.142 30.9738 109.533 29.4913 108.874C27.7433 108.104 26.3438 107.173 25.3877 106.035L25 105.574L28.0858 92.5148H44.3611L44.2233 93.8174C44.1726 94.2964 44.1203 94.9786 44.0671 95.8726L44.0668 95.8774C44.0139 96.7108 43.9889 97.3572 43.9889 97.8265C43.9889 98.4042 44.0576 99.0193 44.2015 99.6743C44.3378 100.294 44.5381 100.857 44.799 101.368C45.0707 101.805 45.4398 102.173 45.9277 102.472C46.3569 102.735 46.9531 102.904 47.7775 102.904C48.6769 102.904 49.4107 102.693 50.0175 102.311L50.031 102.302L50.0446 102.294C50.7869 101.856 51.3637 101.336 51.7978 100.743L51.8048 100.734C52.316 100.05 52.6785 99.3314 52.9037 98.5746L52.9098 98.5542L52.9165 98.5341C53.2014 97.6865 53.3354 96.8895 53.3354 96.1373C53.3354 95.101 53.0919 94.3145 52.667 93.7059L52.6522 93.6847L52.6384 93.6629C52.2142 92.9946 51.6053 92.4114 50.7735 91.9261L50.7533 91.9143L50.7335 91.9016C49.8666 91.3451 48.8345 90.8768 47.6256 90.5064L47.5983 90.4981L47.5714 90.4883C46.352 90.0428 45.0787 89.5969 43.7514 89.1507C42.4401 88.7486 41.0524 88.2624 39.5889 87.6931L39.5759 87.688C38.0687 87.0792 36.679 86.227 35.4095 85.136C34.1116 84.0208 33.0316 82.6356 32.1649 80.997L32.1531 80.9747L32.1422 80.9519C31.2907 79.1632 30.8984 76.9695 30.8984 74.4305C30.8984 70.6248 31.8075 67.3533 33.6927 64.6927L33.6952 64.6892C35.5611 62.0762 37.8809 59.9679 40.6441 58.3688L40.6524 58.364C43.4381 56.784 46.4679 55.6759 49.7351 55.0352C52.9586 54.3472 56.033 54 58.9558 54C62.7879 54 66.1285 54.4873 68.953 55.4938C71.7514 56.417 73.9686 57.5444 75.5199 58.923L76.0596 59.4027L72.6814 72.7318H57.1108ZM90.4094 110.824H71.805L79.5959 72.1594H98.3715L90.4094 110.824ZM87.8342 55.0587C89.0606 54.6907 90.3166 54.5068 91.5991 54.5068C93.8773 54.5068 95.8816 55.0925 97.5495 56.3253C99.3592 57.6627 100.195 59.7254 100.195 62.2679C100.195 63.7274 99.8934 65.0581 99.2494 66.2183C98.6903 67.3192 97.9183 68.2555 96.9475 69.0233C96.0253 69.7949 94.9612 70.3643 93.7697 70.7397C92.5927 71.1106 91.3855 71.296 90.1515 71.296C87.8265 71.296 85.7932 70.7136 84.1207 69.4775C82.3033 68.1343 81.4752 66.0369 81.4752 63.4504C81.4752 62.053 81.7475 60.7659 82.3226 59.6197C82.8764 58.4608 83.6273 57.5003 84.5804 56.7649C85.5468 56.0046 86.6295 55.4382 87.8201 55.063L87.8342 55.0587ZM85.246 57.707C84.4418 58.3263 83.7984 59.1428 83.3159 60.1564C82.8334 61.1136 82.5921 62.2116 82.5921 63.4504C82.5921 65.759 83.3159 67.4483 84.7635 68.5181C86.211 69.588 88.007 70.1229 90.1515 70.1229C91.2774 70.1229 92.3765 69.954 93.4487 69.6161C94.521 69.2783 95.4592 68.7715 96.2634 68.0958C97.1212 67.4201 97.7914 66.6036 98.2739 65.6464C98.81 64.6892 99.0781 63.563 99.0781 62.2679C99.0781 60.0156 98.3543 58.3545 96.9068 57.2846C95.4592 56.2148 93.69 55.6799 91.5991 55.6799C90.4196 55.6799 89.2669 55.8488 88.1411 56.1866C87.0688 56.5245 86.1038 57.0313 85.246 57.707ZM102.359 75.6551L102.846 75.4042C105.658 73.9566 108.532 72.9105 111.467 72.27C114.453 71.5738 117.75 71.2303 121.352 71.2303C124.833 71.2303 127.768 71.515 130.135 72.1068C132.485 72.6944 134.439 73.5651 135.94 74.7634C137.424 75.9479 138.502 77.3847 139.121 79.0771C139.715 80.6978 140 82.5053 140 84.4815C140 85.6046 139.916 86.8037 139.752 88.0767C139.643 89.3294 139.505 90.4067 139.335 91.2996L139.332 91.3146L135.364 110.824H120.666L119.404 106.109C117.816 107.688 116.014 108.946 114.002 109.88L113.991 109.885C111.613 110.955 109.212 111.5 106.796 111.5C105.399 111.5 104.029 111.286 102.691 110.858C101.334 110.424 100.112 109.769 99.0332 108.888L99.0183 108.876L99.0039 108.863C97.9146 107.91 97.0429 106.738 96.3877 105.361L96.3834 105.352L96.3791 105.343C95.7015 103.855 95.3852 102.125 95.3852 100.191C95.3852 97.0489 96.1955 94.4253 97.9373 92.4651L97.9382 92.4641C99.6373 90.5566 101.815 89.1648 104.432 88.2674C107.056 87.3301 109.965 86.7516 113.152 86.5207L113.154 86.5206C116.033 86.3156 118.912 86.2032 121.792 86.1833C121.86 85.7852 121.935 85.3244 122.018 84.7999C122.173 83.7723 122.245 82.909 122.245 82.201C122.245 81.4194 122.043 80.7167 121.629 80.0645L121.605 80.0275L121.584 79.9889C121.404 79.6511 120.896 79.2354 119.422 79.2354C117.776 79.2354 116.75 79.743 116.11 80.5716C115.388 81.5209 114.892 82.7084 114.652 84.174L114.492 85.1478H100.429L102.359 75.6551ZM115.24 79.8361C116.151 78.6536 117.545 78.0623 119.422 78.0623C121.03 78.0623 122.075 78.5128 122.558 79.4137C123.094 80.2584 123.362 81.1874 123.362 82.201C123.362 82.9893 123.282 83.9184 123.121 84.9882C122.96 86.0018 122.826 86.7901 122.719 87.3532C119.556 87.3532 116.392 87.4658 113.229 87.691C110.12 87.9163 107.305 88.4794 104.785 89.3803C102.319 90.2249 100.309 91.52 98.7539 93.2655C97.2527 94.9548 96.5022 97.2634 96.5022 100.191C96.5022 101.993 96.797 103.542 97.3868 104.837C97.9765 106.076 98.7539 107.117 99.7189 107.962C100.684 108.75 101.783 109.342 103.016 109.736C104.249 110.13 105.509 110.327 106.796 110.327C109.048 110.327 111.299 109.82 113.551 108.807C115.626 107.844 117.462 106.516 119.059 104.823C119.178 104.697 119.296 104.569 119.412 104.438C119.469 104.375 119.526 104.31 119.582 104.246H120.065L121.513 109.651H134.46L138.24 91.0695C138.401 90.2249 138.535 89.1832 138.642 87.9444C138.803 86.7056 138.883 85.5513 138.883 84.4815C138.883 82.6233 138.615 80.9622 138.079 79.4982C137.543 78.0342 136.605 76.7673 135.264 75.6974C133.924 74.6276 132.128 73.8111 129.876 73.248C127.624 72.6849 124.783 72.4034 121.352 72.4034C117.813 72.4034 114.596 72.7412 111.701 73.4169C108.86 74.0363 106.072 75.0499 103.338 76.4576L101.81 83.9747H113.551C113.819 82.3418 114.382 80.9622 115.24 79.8361ZM120.547 97.8265L121.834 91.3229H120.387C118.832 91.3229 117.492 91.5481 116.366 91.9986C115.293 92.3928 114.409 92.9277 113.712 93.6034C113.069 94.2791 112.586 95.0393 112.264 95.8839C111.943 96.7285 111.782 97.5731 111.782 98.4177C111.782 99.7691 112.103 100.783 112.747 101.458C113.444 102.134 114.248 102.472 115.159 102.472C116.285 102.472 117.384 102.05 118.457 101.205C119.582 100.36 120.279 99.2342 120.547 97.8265ZM113.522 100.613C114.017 101.086 114.548 101.299 115.159 101.299C116 101.299 116.87 100.989 117.786 100.267L117.797 100.258L117.807 100.25C118.705 99.5767 119.241 98.7079 119.452 97.5964L119.454 97.5878L120.461 92.496H120.387C118.93 92.496 117.731 92.7076 116.763 93.0948L116.749 93.1005L116.735 93.1058C115.788 93.4539 115.049 93.9089 114.486 94.4496C113.952 95.0143 113.561 95.6366 113.301 96.3195C113.028 97.0364 112.899 97.7335 112.899 98.4177C112.899 99.5723 113.169 100.233 113.522 100.613ZM80.5012 73.3325H96.9872L89.5082 109.651H73.1831L80.5012 73.3325Z" fill="#4E4DF4"/>
</g>
</g>
<defs>
<filter id="filter0_d_35_383" x="-5.77148" y="23.1819" width="176.658" height="119.154" filterUnits="userSpaceOnUse" color-interpolation-filters="sRGB">
<feFlood flood-opacity="0" result="BackgroundImageFix"/>
<feColorMatrix in="SourceAlpha" type="matrix" values="0 0 0 0 0 0 0 0 0 0 0 0 0 0 0 0 0 0 127 0" result="hardAlpha"/>
<feOffset/>
<feGaussianBlur stdDeviation="16"/>
<feComposite in2="hardAlpha" operator="out"/>
<feColorMatrix type="matrix" values="0 0 0 0 0 0 0 0 0 0.478431 0 0 0 0 1 0 0 0 0.25 0"/>
<feBlend mode="normal" in2="BackgroundImageFix" result="effect1_dropShadow_35_383"/>
<feBlend mode="normal" in="SourceGraphic" in2="effect1_dropShadow_35_383" result="shape"/>
</filter>
<filter id="filter1_d_35_383" x="-7" y="22" width="179" height="121.5" filterUnits="userSpaceOnUse" color-interpolation-filters="sRGB">
<feFlood flood-opacity="0" result="BackgroundImageFix"/>
<feColorMatrix in="SourceAlpha" type="matrix" values="0 0 0 0 0 0 0 0 0 0 0 0 0 0 0 0 0 0 127 0" result="hardAlpha"/>
<feOffset/>
<feGaussianBlur stdDeviation="16"/>
<feComposite in2="hardAlpha" operator="out"/>
<feColorMatrix type="matrix" values="0 0 0 0 0 0 0 0 0 0.478431 0 0 0 0 1 0 0 0 0.25 0"/>
<feBlend mode="normal" in2="BackgroundImageFix" result="effect1_dropShadow_35_383"/>
<feBlend mode="normal" in="SourceGraphic" in2="effect1_dropShadow_35_383" result="shape"/>
</filter>
<linearGradient id="paint0_linear_35_383" x1="82.5575" y1="55.1819" x2="82.5575" y2="110.336" gradientUnits="userSpaceOnUse">
<stop stop-color="#CEDCFF"/>
<stop offset="1" stop-color="#8CAAF7"/>
</linearGradient>
<linearGradient id="paint1_linear_35_383" x1="82.5575" y1="55.1819" x2="82.5575" y2="110.336" gradientUnits="userSpaceOnUse">
<stop stop-color="#CEDCFF"/>
<stop offset="1" stop-color="#8CAAF7"/>
</linearGradient>
<linearGradient id="paint2_linear_35_383" x1="82.5575" y1="55.1819" x2="82.5575" y2="110.336" gradientUnits="userSpaceOnUse">
<stop stop-color="#CEDCFF"/>
<stop offset="1" stop-color="#8CAAF7"/>
</linearGradient>
<clipPath id="clip0_35_383">
<rect width="166" height="166" rx="64" fill="white"/>
</clipPath>
</defs>
</svg>
